<svg width="25" height="25" viewBox="0 0 25 25" fill="none" xmlns="http://www.w3.org/2000/svg">
<path d="M8.20312 16.7969H1.95312V22.2656H8.20312V16.7969ZM7.42188 21.4844H2.73438V17.5781H7.42188V21.4844ZM8.20312 10.7086L10.0418 8.86992L9.48945 8.31758L8.04141 9.76562H1.95312V15.2344H8.20312V10.7086ZM2.73438 14.4531V10.5469H7.26016L5.07812 12.7289L3.7918 11.4426L3.23945 11.9949L5.07812 13.8336L7.42188 11.4898V14.4531H2.73438ZM1.5625 24.6094H20.3125C20.9586 24.6094 21.4844 24.0836 21.4844 23.4375V7.35C21.8152 7.23203 22.0758 6.97148 22.1938 6.64062H23.4375C24.0836 6.64062 24.6094 6.11484 24.6094 5.46875V4.6875C24.6094 4.04141 24.0836 3.51562 23.4375 3.51562H22.1938C22.0758 3.18477 21.8152 2.92422 21.4844 2.80625V1.5625C21.4844 0.916406 20.9586 0.390625 20.3125 0.390625H1.5625C0.916406 0.390625 0.390625 0.916406 0.390625 1.5625V23.4375C0.390625 24.0836 0.916406 24.6094 1.5625 24.6094ZM21.4844 6.25C21.4844 6.46523 21.3094 6.64062 21.0938 6.64062H18.3594V3.51562H21.0938C21.3094 3.51562 21.4844 3.69102 21.4844 3.90625V6.25ZM11.3281 6.39922L9.76562 5.61797V4.53828L11.3281 3.75703V6.39922ZM12.1094 3.51562H17.5781V6.64062H12.1094V3.51562ZM23.8281 4.6875V5.46875C23.8281 5.68398 23.6531 5.85938 23.4375 5.85938H22.2656V4.29688H23.4375C23.6531 4.29688 23.8281 4.47227 23.8281 4.6875ZM1.17188 1.5625C1.17188 1.34727 1.34688 1.17188 1.5625 1.17188H20.3125C20.5281 1.17188 20.7031 1.34727 20.7031 1.5625V2.73438H11.6266L9.28281 3.90625H8.20312V1.95312H1.95312V8.20312H8.20312V6.25H9.28281L11.6266 7.42188H18.75C18.9656 7.42188 19.1406 7.59727 19.1406 7.8125C19.1406 8.02773 18.9656 8.20312 18.75 8.20312H14.8438V8.98438H18.75C19.3961 8.98438 19.9219 8.45859 19.9219 7.8125C19.9219 7.675 19.8938 7.54453 19.85 7.42188H20.7031V23.4375C20.7031 23.6527 20.5281 23.8281 20.3125 23.8281H1.5625C1.34688 23.8281 1.17188 23.6527 1.17188 23.4375V1.5625ZM8.98438 5.46875H7.03125C6.81563 5.46875 6.64062 5.29336 6.64062 5.07812C6.64062 4.86289 6.81563 4.6875 7.03125 4.6875H8.98438V5.46875ZM7.42188 3.90625H7.03125C6.38516 3.90625 5.85938 4.43203 5.85938 5.07812C5.85938 5.72422 6.38516 6.25 7.03125 6.25H7.42188V7.42188H2.73438V2.73438H7.42188V3.90625ZM9.76562 16.7969H19.1406V17.5781H9.76562V16.7969ZM9.76562 18.3594H19.1406V19.1406H9.76562V18.3594ZM9.76562 19.9219H19.1406V20.7031H9.76562V19.9219ZM9.76562 21.4844H14.4531V22.2656H9.76562V21.4844ZM15.2344 21.4844H16.0156V22.2656H15.2344V21.4844ZM16.7969 21.4844H17.5781V22.2656H16.7969V21.4844ZM18.3594 21.4844H19.1406V22.2656H18.3594V21.4844ZM9.76562 9.76562H19.1406V10.5469H9.76562V9.76562ZM9.76562 11.3281H19.1406V12.1094H9.76562V11.3281ZM9.76562 12.8906H19.1406V13.6719H9.76562V12.8906ZM14.4531 14.4531V15.2344H9.76562V14.4531H14.4531ZM18.3594 14.4531H19.1406V15.2344H18.3594V14.4531ZM17.5781 14.4531V15.2344H16.7969V14.4531H17.5781ZM16.0156 14.4531V15.2344H15.2344V14.4531H16.0156Z" fill="#FDC04E"/>
</svg>
