<svg width="25" height="25" viewBox="0 0 25 25" fill="none" xmlns="http://www.w3.org/2000/svg">
<path d="M4.62258 19.7868L5.19274 20.3563L4.62258 20.9259L4.05242 20.3563L4.62258 19.7868ZM5.19315 19.2168L5.76331 19.7864L6.33347 19.2168L5.76331 18.6472L5.19315 19.2168ZM2.94073 21.4669L3.51089 22.0364L4.05242 21.4955L3.48226 20.9259L2.94073 21.4669ZM25 1.20843V10.0702C25 10.7365 24.4573 11.2786 23.7903 11.2786H18.2323C18.4403 11.9308 18.5484 12.6055 18.5484 13.2927C18.5484 17.0686 15.4734 20.1404 11.6935 20.1404C10.369 20.1404 9.13508 19.7569 8.08548 19.104L3.47218 24.3059C3.09597 24.7304 2.55403 24.9741 1.98589 24.9741C0.890726 24.9741 0 24.0843 0 22.9903C0 22.4223 0.242742 21.8822 0.666129 21.5059L5.86815 16.8845C5.21976 15.8388 4.83871 14.6107 4.83871 13.2927C4.83871 10.3268 6.71774 7.74681 9.47863 6.81149C9.35242 6.58149 9.27419 6.32208 9.27419 6.04213C9.27419 5.88382 9.30444 5.73357 9.34718 5.58897L5.96855 3.56405C5.67742 3.85045 5.27863 4.02808 4.83871 4.02808C4.69194 4.02808 4.55242 4.0019 4.41734 3.96525L2.73629 6.90373C3.0375 7.19658 3.22581 7.60422 3.22581 8.05617C3.22581 8.94476 2.50242 9.6674 1.6129 9.6674C0.723387 9.6674 0 8.94476 0 8.05617C0 7.16757 0.723387 6.44493 1.6129 6.44493C1.75968 6.44493 1.89919 6.47112 2.03427 6.50777L3.71532 3.56929C3.41411 3.27644 3.22581 2.8688 3.22581 2.41685C3.22581 1.52826 3.94919 0.805617 4.83871 0.805617C5.72823 0.805617 6.45161 1.52826 6.45161 2.41685C6.45161 2.57515 6.42137 2.7254 6.37863 2.87001L9.75726 4.89493C10.0484 4.60853 10.4472 4.43089 10.8871 4.43089C11.027 4.43089 11.1605 4.45426 11.2903 4.48809V1.20843C11.2903 0.54218 11.8331 0 12.5 0H23.7903C24.4573 0 25 0.54218 25 1.20843ZM2.41935 8.05617C2.41935 7.61187 2.05766 7.25055 1.6129 7.25055C1.16815 7.25055 0.806452 7.61187 0.806452 8.05617C0.806452 8.50047 1.16815 8.86178 1.6129 8.86178C2.05766 8.86178 2.41935 8.50047 2.41935 8.05617ZM23.7903 0.805617H19.7581V2.41685H24.1935V1.20843C24.1935 0.986478 24.0125 0.805617 23.7903 0.805617ZM17.3387 4.02808H18.9516V0.805617H17.3387V4.02808ZM12.0968 1.20843V2.41685H16.5323V0.805617H12.5C12.2778 0.805617 12.0968 0.986478 12.0968 1.20843ZM12.5 11.2786C11.8331 11.2786 11.2903 10.7365 11.2903 10.0702V8.88233C9.03306 9.08655 7.25806 10.9854 7.25806 13.2927C7.25806 15.7357 9.24798 17.7236 11.6935 17.7236C14.1391 17.7236 16.129 15.7357 16.129 13.2927C16.129 12.589 15.9536 11.8998 15.6351 11.2786H12.5ZM10.0806 6.04213C10.0806 6.48642 10.4423 6.84774 10.8871 6.84774C11.3319 6.84774 11.6935 6.48642 11.6935 6.04213C11.6935 5.59783 11.3319 5.23651 10.8871 5.23651C10.4423 5.23651 10.0806 5.59783 10.0806 6.04213ZM5.64516 2.41685C5.64516 1.97255 5.28347 1.61123 4.83871 1.61123C4.39395 1.61123 4.03226 1.97255 4.03226 2.41685C4.03226 2.86115 4.39395 3.22247 4.83871 3.22247C5.28347 3.22247 5.64516 2.86115 5.64516 2.41685ZM7.42097 18.6388C7.01895 18.3173 6.65444 17.952 6.33347 17.5496L1.20202 22.1077C0.950806 22.3313 0.806452 22.6523 0.806452 22.9883C0.806452 23.64 1.33548 24.1685 1.98589 24.1685C2.32298 24.1685 2.64476 24.0239 2.86855 23.7717L7.42097 18.6388ZM17.3758 11.2786H16.5327C16.7972 11.9135 16.9355 12.5986 16.9355 13.2927C16.9355 16.18 14.5839 18.5292 11.6935 18.5292C8.80323 18.5292 6.45161 16.18 6.45161 13.2927C6.45161 10.5411 8.58831 8.28335 11.2903 8.07671V7.59616C11.1605 7.63 11.027 7.65336 10.8871 7.65336C10.6137 7.65336 10.3597 7.57844 10.1335 7.458C7.48427 8.1613 5.64516 10.5371 5.64516 13.2927C5.64516 16.6243 8.35847 19.3348 11.6935 19.3348C15.0286 19.3348 17.7419 16.6243 17.7419 13.2927C17.7419 12.6023 17.6141 11.9272 17.3758 11.2786ZM24.1935 10.0702V3.22247H19.7581V4.8337H16.5323V3.22247H12.0968V4.98757C12.3448 5.27075 12.5 5.6369 12.5 6.04213C12.5 6.44735 12.3448 6.8131 12.0968 7.09668V10.0702C12.0968 10.2922 12.2778 10.473 12.5 10.473H23.7903C24.0125 10.473 24.1935 10.2922 24.1935 10.0702ZM20.9677 9.6674H21.7742V8.86178H20.9677V9.6674ZM19.3548 9.6674H20.1613V8.86178H19.3548V9.6674ZM22.5806 9.6674H23.3871V8.86178H22.5806V9.6674ZM21.7742 13.6955H25V24.9741H13.7097V20.1404H16.9355V24.1685H17.7419V17.7236H20.9677V24.1685H21.7742V13.6955ZM16.129 20.946H14.5161V24.1685H16.129V20.946ZM18.5484 24.1685H20.1613V18.5292H18.5484V24.1685ZM22.5806 24.1685H24.1935V14.5011H22.5806V24.1685ZM8.87097 12.8899H14.5161V12.0843H8.87097V12.8899ZM8.87097 14.5011H14.5161V13.6955H8.87097V14.5011ZM8.87097 16.1123H9.67742V15.3067H8.87097V16.1123ZM12.0968 16.1123H12.9032V15.3067H12.0968V16.1123ZM10.4839 16.1123H11.2903V15.3067H10.4839V16.1123ZM19.3548 8.05617H23.3871V7.25055H19.3548V8.05617Z" fill="#FDC04E"/>
</svg>
