<svg width="25" height="25" viewBox="0 0 25 25" fill="none" xmlns="http://www.w3.org/2000/svg">
<path d="M12.5002 8.05617C14.0463 8.05617 15.3048 6.79135 15.3048 5.23651C15.3048 3.68167 14.0463 2.41685 12.5002 2.41685C10.9541 2.41685 9.69558 3.68167 9.69558 5.23651C9.69558 6.79135 10.9541 8.05617 12.5002 8.05617ZM12.5002 3.22247C13.6048 3.22247 14.5035 4.12597 14.5035 5.23651C14.5035 6.34705 13.6048 7.25055 12.5002 7.25055C11.3956 7.25055 10.4969 6.34705 10.4969 5.23651C10.4969 4.12597 11.3956 3.22247 12.5002 3.22247ZM7.29162 6.75953L8.25921 7.00242L7.74637 7.86242L9.8883 10.0162L10.7441 9.50024L10.9853 10.473H14.0151L14.2567 9.49983L15.1125 10.0158L17.2544 7.86201L16.7416 7.00202L17.7088 6.75953V3.71349L16.7408 3.4706L17.254 2.611L15.1125 0.456785L14.2567 0.972782L14.0151 0H10.9853L10.7437 0.973185L9.88789 0.456785L7.74597 2.6106L8.25921 3.47019L7.29162 3.71349V6.75953ZM8.09294 4.34268L8.87382 4.14651L9.08818 4.06474L9.27408 3.60473L8.75483 2.73547L10.0125 1.47146L10.8775 1.9935L11.3663 1.79089L11.6111 0.805617H13.3893L13.6341 1.79089L14.1229 1.9935L14.9879 1.47146L16.2456 2.73547L15.7263 3.60473L15.925 4.09616L16.9075 4.34268V6.13034L16.1266 6.32651L15.9126 6.40788L15.7263 6.86788L16.2456 7.73795L14.9879 9.00196L14.1229 8.47992L13.6341 8.68254L13.3893 9.6674H11.6111L11.3663 8.68213L10.8775 8.47952L10.0125 9.00156L8.75483 7.73755L9.27408 6.86748L9.07536 6.37686L8.09294 6.13034V4.34268ZM6.08964 16.5151V23.7657C6.08964 24.4319 6.62892 24.9741 7.29162 24.9741H17.7088C18.3715 24.9741 18.9108 24.4319 18.9108 23.7657V16.5151C18.9108 15.8489 18.3715 15.3067 17.7088 15.3067H7.29162C6.62892 15.3067 6.08964 15.8489 6.08964 16.5151ZM7.29162 16.1123H10.8976V17.7236H6.89096V16.5151C6.89096 16.2928 7.07045 16.1123 7.29162 16.1123ZM11.6989 16.1123H13.3015V19.3348H11.6989V16.1123ZM17.7088 24.1685H7.29162C7.07045 24.1685 6.89096 23.988 6.89096 23.7657V18.5292H10.8976V20.1404H14.1028V18.5292H18.1094V23.7657C18.1094 23.988 17.9299 24.1685 17.7088 24.1685ZM18.1094 16.5151V17.7236H14.1028V16.1123H17.7088C17.9299 16.1123 18.1094 16.2928 18.1094 16.5151ZM13.3015 22.5573H14.1028V23.3629H13.3015V22.5573ZM16.5068 22.5573H17.3081V23.3629H16.5068V22.5573ZM14.9042 22.5573H15.7055V23.3629H14.9042V22.5573ZM24.1193 10.8758C24.1193 7.70089 22.9338 4.65405 21.1697 3.29376L20.8912 3.07866L19.0951 4.88445L19.4793 5.16118C20.5899 5.96116 21.7154 8.18104 21.7154 10.8758C21.7154 11.7801 21.5844 12.6732 21.3243 13.5384L20.1985 12.4065L19.6652 17.7699L25 17.2338L23.1994 15.4231C23.8104 13.9775 24.1193 12.4488 24.1193 10.8758ZM23.2383 16.6017L20.5599 16.8712L20.8279 14.1785L21.6533 15.0082L21.872 14.4238C22.2999 13.2822 22.5167 12.0883 22.5167 10.8758C22.5167 8.4336 21.6252 6.02561 20.3079 4.8043L20.9493 4.1598C22.3572 5.46329 23.318 8.15365 23.318 10.8758C23.318 12.427 22.9947 13.9315 22.358 15.3482L22.2439 15.602L23.2383 16.6017ZM0.881052 10.8758C0.881052 14.0508 2.06661 17.0976 3.83071 18.4579L4.10917 18.6726L5.90533 16.8668L5.5211 16.5901C4.41047 15.7901 3.28501 13.5702 3.28501 10.8758C3.28501 9.97152 3.41603 9.0789 3.67606 8.21326L4.80191 9.34515L5.33519 3.98136L0 4.5175L1.80057 6.32812C1.18996 7.7742 0.881052 9.30286 0.881052 10.8758ZM1.7621 5.14991L4.44052 4.88083L4.17248 7.5732L3.34712 6.74382L3.12836 7.32829C2.70045 8.46985 2.48369 9.66337 2.48369 10.8758C2.48369 13.3177 3.37516 15.7256 4.69253 16.9474L4.05108 17.5923C2.64316 16.2884 1.68237 13.598 1.68237 10.8758C1.68237 9.32461 2.00571 7.82012 2.64235 6.40344L2.75654 6.14968L1.7621 5.14991Z" fill="#FDC04E"/>
</svg>
