<svg width="25" height="25" viewBox="0 0 25 25" fill="none" xmlns="http://www.w3.org/2000/svg">
<path d="M23.5278 2.52601C23.3927 1.98786 22.9101 1.61123 22.354 1.61123H19.7581C19.0911 1.61123 18.5484 2.15341 18.5484 2.81966C18.5484 3.4859 19.0911 4.02808 19.7581 4.02808H20.5645C21.2315 4.02808 21.7742 3.4859 21.7742 2.81966V2.41685H22.354C22.5391 2.41685 22.7004 2.54253 22.7452 2.72178L23.2738 4.8337H20.5645C20.223 4.8337 19.9153 4.9771 19.6952 5.20549C19.4444 4.9775 19.1141 4.83451 18.7488 4.83451L14.0677 4.8341C14.5923 4.32173 14.9194 3.60836 14.9194 2.81966C14.9194 1.26522 13.6532 0 12.0968 0C10.5403 0 9.27419 1.26522 9.27419 2.81966C9.27419 3.71913 9.6996 4.51951 10.3581 5.03631C9.56371 5.31224 8.88831 5.85683 8.45081 6.57262C7.73589 5.0492 6.19113 4.02808 4.43548 4.02808C1.98992 4.02808 0 6.01594 0 8.45898C0 9.42974 0.314919 10.3498 0.888306 11.1119C0.360484 11.4136 0 11.9751 0 12.6248C0 13.3918 0.491935 14.0487 1.20968 14.2816V14.2916C1.20968 15.0469 1.51815 15.7413 2.01613 16.2529V16.7085C2.01613 17.4638 2.3246 18.1582 2.82258 18.6698V18.932C2.82258 20.2097 3.67863 21.2904 4.84758 21.6352C4.84637 21.6743 4.83871 21.7126 4.83871 21.7517C4.83871 23.5284 6.28589 24.9741 8.06452 24.9741C9.84315 24.9741 11.2903 23.5284 11.2903 21.7517H17.7419C17.7419 23.5284 19.1891 24.9741 20.9677 24.9741C22.7464 24.9741 24.1935 23.5284 24.1935 21.7517H25V21.0552C25 20.1412 24.698 19.2981 24.1935 18.6126V11.812C24.1935 10.6567 23.6907 9.59288 22.8621 8.86178H25V4.8337H24.1052L23.5278 2.52601ZM20.9677 2.81966C20.9677 3.04201 20.7867 3.22247 20.5645 3.22247H19.7581C19.5359 3.22247 19.3548 3.04201 19.3548 2.81966C19.3548 2.59731 19.5359 2.41685 19.7581 2.41685H20.9677V2.81966ZM20.1613 6.04213C20.1613 5.81978 20.3423 5.63932 20.5645 5.63932H22.5806V8.05617H21.4363H20.5645C20.3423 8.05617 20.1613 7.87571 20.1613 7.65336V6.04213ZM17.1544 19.2051L17.0895 19.3348H15.9065C16.1085 18.988 16.1782 18.586 16.0931 18.1908L15.1569 13.8256C14.8758 12.5169 13.796 11.5239 12.5 11.3189L13.1694 7.97681C13.2065 7.78951 13.3722 7.65336 13.5621 7.65336L18.7544 7.65296C18.9698 7.65296 19.1718 7.60019 19.3544 7.51318V7.65336C19.3544 7.96392 19.4758 8.24468 19.669 8.45898C19.4754 8.67327 19.3544 8.95403 19.3544 9.26459V17.2064C18.4149 17.5705 17.6246 18.2653 17.1544 19.2051ZM10.0806 2.81966C10.0806 1.70912 10.9851 0.805617 12.0968 0.805617C13.2085 0.805617 14.1129 1.70912 14.1129 2.81966C14.1129 3.9302 13.2085 4.8337 12.0968 4.8337C10.9851 4.8337 10.0806 3.9302 10.0806 2.81966ZM11.548 5.63932L18.7488 5.64012C19.0831 5.64012 19.3544 5.91162 19.3544 6.24554C19.3544 6.57746 19.0855 6.84734 18.754 6.84734L13.5621 6.84774C12.9891 6.84774 12.4911 7.25619 12.3782 7.81851L11.5242 12.083L12.0137 12.0855C13.1415 12.0911 14.1315 12.8939 14.3681 13.9944L15.3044 18.36C15.35 18.5703 15.3105 18.7862 15.1935 18.9666C15.0762 19.1475 14.8952 19.2724 14.6855 19.3171C14.2488 19.4081 13.8185 19.1217 13.7278 18.698L12.7915 14.3315C12.7113 13.9629 12.3798 13.6955 12.0028 13.6955H11.044C10.7855 13.3873 10.4383 13.1557 10.0315 13.0449L8.19476 12.5447C8.07056 12.2285 8.03266 11.8905 8.09597 11.5538L8.77419 7.93935C9.02419 6.60646 10.1907 5.63932 11.548 5.63932ZM13.1 19.2873C12.6685 19.168 12.3238 18.818 12.2327 18.3632L11.4778 14.5929C11.4714 14.5615 11.4605 14.5321 11.4528 14.5011H12.0028L12.9391 18.8667C12.9714 19.017 13.029 19.1564 13.1 19.2873ZM7.26169 11.87C7.26089 12.0138 7.27258 12.1576 7.29516 12.2994L6.84597 12.1769C6.99113 12.0834 7.12903 11.9799 7.26169 11.87ZM0.806452 8.45898C0.806452 6.45984 2.43468 4.8337 4.43548 4.8337C6.17218 4.8337 7.65444 6.05421 7.99194 7.7456C7.98871 7.76091 7.98427 7.77541 7.98145 7.79072L7.48911 10.415C7.06008 11.0817 6.425 11.5892 5.68468 11.8607L2.29677 10.9379C2.14556 10.8968 1.99073 10.8758 1.83589 10.8758H1.75081C1.74637 10.8758 1.74194 10.877 1.7375 10.877C1.1379 10.2112 0.806452 9.36167 0.806452 8.45898ZM8.06452 24.1685C6.73024 24.1685 5.64516 23.0845 5.64516 21.7517H6.45161C6.45161 22.6402 7.175 23.3629 8.06452 23.3629C8.95403 23.3629 9.67742 22.6402 9.67742 21.7517H10.4839C10.4839 23.0845 9.39879 24.1685 8.06452 24.1685ZM8.87097 21.7517C8.87097 22.196 8.50927 22.5573 8.06452 22.5573C7.61976 22.5573 7.25806 22.196 7.25806 21.7517H8.87097ZM5.64516 20.946C4.64798 20.946 3.82339 20.217 3.6629 19.2659C3.95363 19.4009 4.27016 19.4899 4.60444 19.5177L6.65847 19.6889L6.7254 18.8865L4.67137 18.7153C3.67944 18.6323 2.90121 17.8198 2.83548 16.8398C3.13185 16.9804 3.45565 17.0726 3.79798 17.1008L6.41815 17.3191L6.48508 16.5168L3.86492 16.2984C2.89435 16.2175 2.12944 15.4372 2.03508 14.485L5.55444 15.2962L5.73589 14.5112L1.53831 13.5436C1.10766 13.4445 0.806452 13.0663 0.806452 12.6248C0.806452 12.1048 1.22984 11.6814 1.75081 11.6814H1.83589C1.91935 11.6814 2.00282 11.6927 2.08427 11.7149L9.81936 13.822C10.2645 13.9432 10.5968 14.2993 10.6875 14.7508L11.4423 18.5211C11.6298 19.4597 12.4613 20.1404 13.419 20.1404H17.5879L17.8758 19.5652C18.4444 18.4293 19.5875 17.7236 20.8585 17.7236C22.6609 17.7236 24.1339 19.1592 24.1915 20.946H5.64516ZM21.7742 21.7517C21.7742 22.196 21.4125 22.5573 20.9677 22.5573C20.523 22.5573 20.1613 22.196 20.1613 21.7517H21.7742ZM20.9677 24.1685C19.6335 24.1685 18.5484 23.0845 18.5484 21.7517H19.3548C19.3548 22.6402 20.0782 23.3629 20.9677 23.3629C21.8573 23.3629 22.5806 22.6402 22.5806 21.7517H23.3871C23.3871 23.0845 22.302 24.1685 20.9677 24.1685ZM23.3871 11.812V14.891C22.9327 14.8278 22.5806 14.4411 22.5806 13.9702V11.8099C22.5806 11.3866 22.8657 11.0325 23.2528 10.9181C23.3379 11.2033 23.3871 11.503 23.3871 11.812ZM22.9198 10.1818C22.2532 10.4263 21.7742 11.0607 21.7742 11.8095V13.9698C21.7742 14.885 22.4879 15.6294 23.3871 15.6962V17.7856C22.6867 17.2442 21.8109 16.918 20.8585 16.918C20.621 16.918 20.3895 16.9441 20.1613 16.9824V9.26459C20.1613 9.04224 20.3423 8.86178 20.5645 8.86178H21.3036C21.996 9.1079 22.5536 9.58402 22.9198 10.1818ZM24.1935 8.05617H23.3871V5.63932H24.1935V8.05617ZM10.0685 16.0149L10.875 19.2373L10.0927 19.4323L9.28629 16.2098L10.0685 16.0149ZM9.86694 15.2092L9.08468 15.4042L8.88307 14.5986L9.66532 14.4036L9.86694 15.2092ZM4.83871 9.6674V9.26459C4.83871 9.04224 4.65766 8.86178 4.43548 8.86178C3.76855 8.86178 3.22581 8.3196 3.22581 7.65336V6.44493H4.03226V5.63932H4.83871V6.51905C5.30685 6.68581 5.64516 7.1289 5.64516 7.65336H4.83871C4.83871 7.43101 4.65766 7.25055 4.43548 7.25055H4.03226V7.65336C4.03226 7.87571 4.21331 8.05617 4.43548 8.05617C5.10242 8.05617 5.64516 8.59835 5.64516 9.26459V10.473H4.83871V11.2786H4.03226V10.3989C3.56411 10.2321 3.22581 9.78905 3.22581 9.26459H4.03226C4.03226 9.48694 4.21331 9.6674 4.43548 9.6674H4.83871ZM7.25806 8.86178H6.45161V8.05617H7.25806V8.86178ZM2.41935 8.86178H1.6129V8.05617H2.41935V8.86178Z" fill="#FDC04E"/>
</svg>
