<svg width="15" height="15" viewBox="0 0 15 15" fill="none" xmlns="http://www.w3.org/2000/svg">
<path d="M14.4141 10.3125C14.7377 10.3125 15 10.0502 15 9.72656V4.45312C15 4.12951 14.7377 3.86719 14.4141 3.86719H10.7227V3.22266C10.7227 1.44568 9.27697 0 7.5 0C5.72303 0 4.27734 1.44568 4.27734 3.22266V3.86719H0.585938C0.262324 3.86719 0 4.12951 0 4.45312V12.6562C0 13.9486 1.05141 15 2.34375 15H12.6562C13.9486 15 15 13.9486 15 12.6562C15 12.3326 14.7377 12.0703 14.4141 12.0703C14.0904 12.0703 13.8281 12.3326 13.8281 12.6562C13.8281 13.3024 13.3024 13.8281 12.6562 13.8281H2.34375C1.69758 13.8281 1.17188 13.3024 1.17188 12.6562V5.03906H4.27734V7.23633C4.27734 7.55994 4.53967 7.82227 4.86328 7.82227C5.18689 7.82227 5.44922 7.55994 5.44922 7.23633V3.22266C5.44922 2.09186 6.36917 1.17188 7.5 1.17188C8.63083 1.17188 9.55078 2.09186 9.55078 3.22266V3.86719H7.20703C6.88342 3.86719 6.62109 4.12951 6.62109 4.45312C6.62109 4.77674 6.88342 5.03906 7.20703 5.03906H9.55078V7.23633C9.55078 7.55994 9.81311 7.82227 10.1367 7.82227C10.4603 7.82227 10.7227 7.55994 10.7227 7.23633V5.03906H13.8281V9.72656C13.8281 10.0502 14.0904 10.3125 14.4141 10.3125Z" fill="white"/>
</svg>
